<svg width="180" height="180" viewBox="0 0 180 180" fill="none" xmlns="http://www.w3.org/2000/svg">
<g clip-path="url(#clip0_49_3)">
<path d="M180 0H0V180H180V0Z" fill="#FE0D16"/>
<path d="M125.82 147.402L58.158 147.384L22.338 89.982L54.18 32.598L121.842 32.616L157.662 90.018L125.82 147.402Z" stroke="white" stroke-width="2" stroke-miterlimit="10"/>
<path d="M135.441 58.698H110.484L85.032 91.179H84.726L88.722 58.698H68.859L58.059 146.853H77.859L80.91 121.59L87.39 114.075H87.696L101.817 146.853H125.505L102.24 96.993L135.441 58.698ZM66.375 108.9L64.575 106.947C65.4938 106.073 66.0689 104.899 66.196 103.637C66.3232 102.376 65.9939 101.111 65.268 100.071L67.419 98.514C68.5267 100.084 69.0286 102.002 68.832 103.914C68.7424 104.97 68.436 105.997 67.932 106.929C67.5208 107.664 66.9952 108.33 66.375 108.9ZM68.661 111.6C70.8146 109.605 72.1626 106.89 72.45 103.968C72.7402 101.045 71.967 98.1145 70.272 95.715L72.747 93.915C74.8813 96.9129 75.8527 100.585 75.4802 104.246C75.1076 107.907 73.4165 111.308 70.722 113.814L68.661 111.6ZM81.999 104.679C81.7074 107.635 80.8195 110.5 79.389 113.103C78.6984 114.363 77.8876 115.554 76.968 116.658C76.3562 117.387 75.701 118.078 75.006 118.728L72.837 116.379C76.2384 113.235 78.3737 108.957 78.8411 104.349C79.3085 99.7414 78.0758 95.1215 75.375 91.359L77.967 89.487C78.5232 90.2652 79.0311 91.0767 79.488 91.917C80.1637 93.1849 80.7182 94.5138 81.144 95.886C82.0239 98.7346 82.3148 101.732 81.999 104.697V104.679Z" fill="white"/>
</g>
<defs>
<clipPath id="clip0_49_3">
<rect width="180" height="180" rx="20" fill="white"/>
</clipPath>
</defs>
</svg>
