<svg width="223" height="223" viewBox="0 0 223 223" fill="none" xmlns="http://www.w3.org/2000/svg">
<g clip-path="url(#clip0_20_2101)">
<path d="M223 0H0V223H223V0Z" fill="#FE0D16"/>
<path d="M155.877 182.615L72.0513 182.592L27.6743 111.478L67.123 40.3853L150.949 40.4076L195.326 111.522L155.877 182.615Z" stroke="white" stroke-width="2" stroke-miterlimit="10"/>
<path d="M167.796 72.7203H136.877L105.345 112.961H104.966L109.917 72.7203H85.3086L71.9286 181.935H96.4586L100.238 150.636L108.266 141.326H108.646L126.14 181.935H155.487L126.664 120.164L167.796 72.7203ZM82.2312 134.915L80.0012 132.495C81.1395 131.413 81.852 129.958 82.0095 128.395C82.167 126.832 81.7591 125.265 80.8598 123.977L83.5247 122.048C84.897 123.993 85.5188 126.37 85.2752 128.738C85.1641 130.046 84.7846 131.318 84.1602 132.473C83.6507 133.384 82.9996 134.208 82.2312 134.915ZM85.0633 138.26C87.7315 135.788 89.4014 132.424 89.7575 128.805C90.1171 125.183 89.1591 121.553 87.0592 118.58L90.1254 116.35C92.7696 120.064 93.9731 124.613 93.5115 129.149C93.05 133.685 90.9549 137.898 87.6167 141.003L85.0633 138.26ZM101.588 129.686C101.226 133.347 100.126 136.898 98.3541 140.122C97.4986 141.683 96.4941 143.158 95.3548 144.526C94.5968 145.429 93.7851 146.286 92.9241 147.091L90.2369 144.181C94.4509 140.286 97.0963 134.986 97.6754 129.277C98.2545 123.569 96.7273 117.845 93.3812 113.184L96.5924 110.864C97.2815 111.828 97.9108 112.834 98.4768 113.875C99.3139 115.446 100.001 117.092 100.528 118.792C101.619 122.321 101.979 126.035 101.588 129.708V129.686Z" fill="white"/>
</g>
<defs>
<clipPath id="clip0_20_2101">
<rect width="223" height="223" rx="20" fill="white"/>
</clipPath>
</defs>
</svg>
